<svg width="24" height="24" viewBox="0 0 24 24" fill="none" xmlns="http://www.w3.org/2000/svg">
<path d="M17.6635 7.03906C18.8229 7.22148 19.7738 7.76836 20.5171 8.67969C21.1711 9.48711 21.6171 10.5027 21.8546 11.7266C22.0631 12.8465 22.0475 13.966 21.81 15.0859C21.4533 16.9348 20.7399 18.4844 19.6698 19.7344C18.3912 21.2449 16.7863 22 14.8542 22C14.3783 22 13.8586 21.8699 13.2935 21.6094C12.9068 21.4012 12.476 21.2969 12.0002 21.2969C11.5243 21.2969 11.0939 21.4012 10.7068 21.6094C10.1417 21.8699 9.62203 22 9.14613 22C7.21399 22 5.60908 21.2449 4.33051 19.7344C3.26042 18.4844 2.54702 16.9348 2.19033 15.0859C1.95283 13.966 1.9372 12.8465 2.14569 11.7266C2.38319 10.5027 2.82917 9.48711 3.48319 8.67969C4.22649 7.76836 5.17738 7.22148 6.33676 7.03906C7.05015 6.93477 8.03095 7.02617 9.27961 7.3125C10.3497 7.57305 11.2564 7.88555 11.9997 8.25C12.743 7.88555 13.6497 7.57305 14.7198 7.3125C15.9689 7.02617 16.9502 6.93477 17.6635 7.03906ZM15.2109 5.4375C14.7948 5.77617 14.2443 6.02344 13.5609 6.17969C13.085 6.30977 12.5653 6.375 12.0002 6.375L11.3314 6.33594C11.272 5.97148 11.272 5.55469 11.3314 5.08594C11.4506 4.14844 11.7921 3.43242 12.3568 2.9375C12.7729 2.59883 13.3234 2.35156 14.0068 2.19531C14.4827 2.06523 15.0024 2 15.5676 2L16.2363 2.03906L16.281 2.625C16.281 3.11992 16.2064 3.57539 16.0582 3.99219C15.8801 4.59102 15.5979 5.07305 15.2109 5.4375Z" fill="white"/>
</svg>
