<svg width="24" height="25" viewBox="0 0 24 25" fill="none" xmlns="http://www.w3.org/2000/svg">
<g clip-path="url(#clip0_51023_2169)">
<path d="M21 4.78809H7C6.46957 4.78809 5.96086 4.9988 5.58579 5.37387C5.21071 5.74894 5 6.25765 5 6.78809C5 7.31852 5.21071 7.82723 5.58579 8.2023C5.96086 8.57737 6.46957 8.78809 7 8.78809H21V21.7881C21 22.0533 20.8946 22.3077 20.7071 22.4952C20.5196 22.6827 20.2652 22.7881 20 22.7881H7C5.93913 22.7881 4.92172 22.3667 4.17157 21.6165C3.42143 20.8664 3 19.849 3 18.7881V6.78809C3 5.72722 3.42143 4.7098 4.17157 3.95966C4.92172 3.20951 5.93913 2.78809 7 2.78809H20C20.2652 2.78809 20.5196 2.89344 20.7071 3.08098C20.8946 3.26852 21 3.52287 21 3.78809V4.78809ZM20 7.78809H7C6.73478 7.78809 6.48043 7.68273 6.29289 7.49519C6.10536 7.30766 6 7.0533 6 6.78809C6 6.52287 6.10536 6.26852 6.29289 6.08098C6.48043 5.89344 6.73478 5.78809 7 5.78809H20V7.78809Z" fill="#CEB5F2"/>
</g>
<defs>
<clipPath id="clip0_51023_2169">
<rect width="24" height="24" fill="white" transform="translate(0 0.788086)"/>
</clipPath>
</defs>
</svg>
