<svg width="21" height="20" viewBox="0 0 21 20" fill="none" xmlns="http://www.w3.org/2000/svg">
<path d="M18.9997 15C18.9997 15.8841 18.6485 16.7319 18.0234 17.357C17.3982 17.9821 16.5504 18.3333 15.6663 18.3333H13.1663C12.2823 18.3333 11.4344 17.9821 10.8093 17.357C10.1842 16.7319 9.83301 15.8841 9.83301 15V13.3333H15.4913L17.7913 9.35833L19.0913 10.1083L17.2247 13.3333H18.9997V15ZM8.16634 18.3333H2.33301C2.33301 15.8333 2.33301 13.3333 2.60801 10.6917C2.83301 8.58333 3.23301 6.38333 3.66634 4.16667H3.16634V2.5H3.99967H6.49967H7.33301V4.16667H6.83301C7.26634 6.38333 7.66634 8.58333 7.89134 10.6917C8.16634 13.3333 8.16634 15.8333 8.16634 18.3333Z" fill="white"/>
</svg>
