<svg width="24" height="24" viewBox="0 0 24 24" fill="none" xmlns="http://www.w3.org/2000/svg">
<g clip-path="url(#clip0_51023_2932)">
<path d="M8.98908 4.10095C8.28926 5.6201 8.07183 7.31723 8.3661 8.96374C8.66036 10.6102 9.45218 12.127 10.6349 13.3097C11.8176 14.4924 13.3343 15.2842 14.9808 15.5785C16.6273 15.8727 18.3245 15.6553 19.8436 14.9555C18.94 19.0246 15.31 22.0664 10.9691 22.0664C5.94817 22.0664 1.87817 17.9964 1.87817 12.9755C1.87817 8.63459 4.91999 5.00459 8.98908 4.10095ZM16.5727 4.14913L17.3327 4.33913V5.24822L16.5727 5.43822C16.2531 5.51816 15.9612 5.68345 15.7282 5.91643C15.4952 6.14941 15.3299 6.44132 15.25 6.76095L15.06 7.52095H14.1509L13.9609 6.76095C13.881 6.44132 13.7157 6.14941 13.4827 5.91643C13.2497 5.68345 12.9578 5.51816 12.6382 5.43822L11.8782 5.24822V4.33913L12.6382 4.14913C12.9576 4.06905 13.2494 3.90369 13.4822 3.67073C13.715 3.43776 13.8801 3.14593 13.96 2.82641L14.1509 2.06641H15.06L15.25 2.82641C15.3299 3.14604 15.4952 3.43795 15.7282 3.67093C15.9612 3.9039 16.2531 4.06919 16.5727 4.14913ZM21.1182 8.69459L21.8782 8.88459V9.79368L21.1182 9.98368C20.7985 10.0636 20.5066 10.2289 20.2737 10.4619C20.0407 10.6949 19.8754 10.9868 19.7954 11.3064L19.6054 12.0664H18.6964L18.5064 11.3064C18.4264 10.9868 18.2611 10.6949 18.0281 10.4619C17.7952 10.2289 17.5033 10.0636 17.1836 9.98368L16.4236 9.79368V8.88459L17.1836 8.69459C17.5033 8.61465 17.7952 8.44936 18.0281 8.21638C18.2611 7.9834 18.4264 7.6915 18.5064 7.37186L18.6964 6.61186H19.6054L19.7954 7.37186C19.8754 7.6915 20.0407 7.9834 20.2737 8.21638C20.5066 8.44936 20.7985 8.61465 21.1182 8.69459Z" fill="white"/>
</g>
<defs>
<clipPath id="clip0_51023_2932">
<rect width="24" height="24" fill="white"/>
</clipPath>
</defs>
</svg>
