<svg width="24" height="24" viewBox="0 0 24 24" fill="none" xmlns="http://www.w3.org/2000/svg">
<path d="M21.084 2.91355C19.906 1.73455 17.85 1.73455 16.672 2.91355L8.293 11.2925C8.20005 11.3853 8.12632 11.4955 8.07601 11.6169C8.0257 11.7382 7.9998 11.8682 7.9998 11.9995C7.9998 12.1309 8.0257 12.2609 8.07601 12.3822C8.12632 12.5036 8.20005 12.6138 8.293 12.7065L11.293 15.7065C11.3857 15.7997 11.4958 15.8737 11.6171 15.9241C11.7385 15.9746 11.8686 16.0006 12 16.0006C12.1314 16.0006 12.2615 15.9746 12.3829 15.9241C12.5042 15.8737 12.6143 15.7997 12.707 15.7065L21.086 7.32755C21.6706 6.74171 21.9988 5.94777 21.9984 5.12013C21.998 4.2925 21.6691 3.49885 21.084 2.91355ZM8 14.9995C6.735 14.3655 4.5 14.9995 4.5 16.9995C4.5 18.1965 5 18.9995 3 19.9995C3 19.9995 6.25 22.2495 8.5 19.9995C9.774 18.7255 9.994 15.9995 8 14.9995Z" fill="white"/>
</svg>
